<svg width="495" height="195" viewBox="0 0 495 195" fill="none" xmlns="http://www.w3.org/2000/svg" role="img" aria-labelledby="title desc">
  <title id="title">Top languages for Sovinskii28</title>
  <desc id="desc">Local top languages card based on public repositories.</desc>
  <rect width="495" height="195" rx="8" fill="#000000"/>
  <rect x="0.5" y="0.5" width="494" height="194" rx="7.5" stroke="#00ff41" stroke-opacity="0.55"/>
  <text x="24" y="34" fill="#00ff41" font-family="JetBrains Mono, Consolas, monospace" font-size="18" font-weight="700">top languages</text>
  <text x="24" y="62" fill="#8b949e" font-family="JetBrains Mono, Consolas, monospace" font-size="12">from public repositories</text>

  <g font-family="JetBrains Mono, Consolas, monospace" font-size="13">
    <circle cx="31" cy="95" r="5" fill="#dea584"/>
    <text x="45" y="100" fill="#c9d1d9">Rust</text>
    <rect x="145" y="88" width="310" height="10" rx="5" fill="#0d1117"/>
    <rect x="145" y="88" width="240" height="10" rx="5" fill="#00ff41"/>

    <circle cx="31" cy="123" r="5" fill="#3572A5"/>
    <text x="45" y="128" fill="#c9d1d9">Python</text>
    <rect x="145" y="116" width="310" height="10" rx="5" fill="#0d1117"/>
    <rect x="145" y="116" width="116" height="10" rx="5" fill="#00ff41"/>

    <circle cx="31" cy="151" r="5" fill="#00B4AB"/>
    <text x="45" y="156" fill="#c9d1d9">Dart</text>
    <rect x="145" y="144" width="310" height="10" rx="5" fill="#0d1117"/>
    <rect x="145" y="144" width="88" height="10" rx="5" fill="#00ff41"/>

    <circle cx="31" cy="179" r="5" fill="#f34b7d"/>
    <text x="45" y="184" fill="#c9d1d9">C++ / Swift / Makefile</text>
    <rect x="245" y="172" width="210" height="10" rx="5" fill="#0d1117"/>
    <rect x="245" y="172" width="80" height="10" rx="5" fill="#00ff41"/>
  </g>
</svg>
